<svg xmlns="http://www.w3.org/2000/svg" width="1600" height="1600" viewBox="0 0 1200 1200"><path fill-rule="evenodd" d="M200.86 200.86c220.45-220.45 577.82-220.45 798.28 0 220.45 220.45 220.45 577.82 0 798.28-220.45 220.45-577.82 220.45-798.28 0-220.45-220.45-220.45-577.82 0-798.28M553.92 384v169.92H384c-60.656 0-60.656 92.156 0 92.156h169.92v169.92c0 60.656 92.156 60.656 92.156 0v-169.92h169.92c60.656 0 60.656-92.156 0-92.156h-169.92V384c0-60.656-92.156-60.656-92.156 0m-287.9-117.98c-184.45 184.45-184.45 483.52 0 667.97s483.52 184.45 667.97 0 184.45-483.52 0-667.97-483.52-184.45-667.97 0"/></svg>