<svg xmlns="http://www.w3.org/2000/svg" width="1600" height="1600" viewBox="0 0 1200 1200"><path d="M1050 135.94h-60.938v-23.438c0-28.453-23.109-51.562-51.562-51.562s-51.562 23.109-51.562 51.562v23.438h-121.87v-23.438c0-28.453-23.109-51.562-51.562-51.562s-51.562 23.109-51.562 51.562v23.438h-121.87v-23.438c0-28.453-23.109-51.562-51.562-51.562s-51.562 23.109-51.562 51.562v23.438H314.08v-23.438c0-28.453-23.109-51.562-51.562-51.562s-51.562 23.109-51.562 51.562v23.438h-60.938c-49.125 0-89.062 39.938-89.062 89.062v825c0 49.125 39.938 89.062 89.062 89.062h900c49.125 0 89.062-39.938 89.062-89.062v-825c0-49.125-39.938-89.062-89.062-89.062zm60.938 801.56c0 33.609-27.328 60.938-60.938 60.938H150c-33.609 0-60.938-27.328-60.938-60.938V389.06h1021.9zm-196.87-825c0-12.938 10.5-23.438 23.438-23.438s23.438 10.5 23.438 23.438v150c0 12.938-10.5 23.438-23.438 23.438s-23.438-10.5-23.438-23.438zm-225 0c0-12.938 10.5-23.438 23.438-23.438s23.438 10.5 23.438 23.438v150c0 12.938-10.5 23.438-23.438 23.438s-23.438-10.5-23.438-23.438zm-225 0c0-12.938 10.5-23.438 23.438-23.438s23.438 10.5 23.438 23.438v150c0 12.938-10.5 23.438-23.438 23.438s-23.438-10.5-23.438-23.438zm-225 0c0-12.938 10.5-23.438 23.438-23.438s23.438 10.5 23.438 23.438v150c0 12.938-10.5 23.438-23.438 23.438s-23.438-10.5-23.438-23.438zm-89.062 51.562h60.938V262.5c0 28.453 23.109 51.562 51.562 51.562s51.562-23.109 51.562-51.562v-98.438h121.87V262.5c0 28.453 23.109 51.562 51.562 51.562s51.562-23.109 51.562-51.562v-98.438h121.87V262.5c0 28.453 23.109 51.562 51.562 51.562s51.562-23.109 51.562-51.562v-98.438h121.87V262.5c0 28.453 23.109 51.562 51.562 51.562s51.562-23.109 51.562-51.562v-98.438h60.938c33.609 0 60.938 27.328 60.938 60.938v135.94H89.026V225c0-33.609 27.328-60.938 60.938-60.938zm900 946.87h-900c-33.609 0-60.938-27.328-60.938-60.938v-47.906c15.938 15.047 37.312 24.469 60.938 24.469h900c23.625 0 45-9.422 60.938-24.469v47.906c0 33.609-27.328 60.938-60.938 60.938m-693.74-637.5h-112.5c-18.094 0-32.812 14.719-32.812 32.812v112.5c0 18.094 14.719 32.812 32.812 32.812h112.5c18.094 0 32.812-14.719 32.812-32.812v-112.5c0-18.094-14.719-32.812-32.812-32.812m4.688 145.31a4.7 4.7 0 0 1-4.688 4.688h-112.5a4.7 4.7 0 0 1-4.687-4.688v-112.5a4.7 4.7 0 0 1 4.687-4.688h112.5a4.7 4.7 0 0 1 4.688 4.688zm295.31-145.31h-112.5c-18.094 0-32.812 14.719-32.812 32.812v112.5c0 18.094 14.719 32.812 32.812 32.812h112.5c18.094 0 32.812-14.719 32.812-32.812v-112.5c0-18.094-14.72-32.812-32.812-32.812m4.687 145.31a4.7 4.7 0 0 1-4.687 4.688h-112.5a4.7 4.7 0 0 1-4.688-4.688v-112.5a4.7 4.7 0 0 1 4.688-4.688h112.5a4.7 4.7 0 0 1 4.687 4.688zm295.31-145.31h-112.5c-18.094 0-32.812 14.719-32.812 32.812v112.5c0 18.094 14.719 32.812 32.812 32.812h112.5c18.094 0 32.812-14.719 32.812-32.812v-112.5c0-18.094-14.719-32.812-32.812-32.812m4.688 145.31a4.7 4.7 0 0 1-4.688 4.688h-112.5a4.7 4.7 0 0 1-4.687-4.688v-112.5a4.7 4.7 0 0 1 4.687-4.688h112.5a4.7 4.7 0 0 1 4.688 4.688zm-604.69 117.19h-112.5c-18.095 0-32.813 14.719-32.813 32.812v112.5c0 18.094 14.72 32.812 32.812 32.812h112.5c18.094 0 32.812-14.719 32.812-32.812v-112.5c0-18.094-14.719-32.812-32.812-32.812m4.687 145.31a4.7 4.7 0 0 1-4.688 4.688h-112.5a4.7 4.7 0 0 1-4.687-4.688v-112.5a4.7 4.7 0 0 1 4.687-4.687h112.5a4.7 4.7 0 0 1 4.688 4.687zm295.31-145.31h-112.5c-18.094 0-32.812 14.719-32.812 32.812v112.5c0 18.094 14.719 32.812 32.812 32.812h112.5c18.094 0 32.812-14.719 32.812-32.812v-112.5c0-18.094-14.719-32.812-32.812-32.812m4.687 145.31a4.7 4.7 0 0 1-4.687 4.688h-112.5a4.7 4.7 0 0 1-4.688-4.688v-112.5a4.7 4.7 0 0 1 4.688-4.687h112.5a4.7 4.7 0 0 1 4.687 4.687zm295.31-145.31h-112.5c-18.094 0-32.812 14.719-32.812 32.812v112.5c0 18.094 14.72 32.812 32.812 32.812h112.5c18.094 0 32.812-14.719 32.812-32.812v-112.5c0-18.094-14.719-32.812-32.812-32.812m4.688 145.31a4.7 4.7 0 0 1-4.688 4.688h-112.5a4.7 4.7 0 0 1-4.687-4.688v-112.5a4.7 4.7 0 0 1 4.687-4.687h112.5a4.7 4.7 0 0 1 4.688 4.687z"/></svg>