<?xml version="1.0" encoding="UTF-8"?>
<svg width="1200pt" height="1200pt" version="1.1" viewBox="0 0 1200 1200" xmlns="http://www.w3.org/2000/svg">
 <path d="m408.86 440.7c-8.4531 0-16.559 3.3555-22.535 9.332-5.9766 5.9766-9.3359 14.086-9.332 22.539 0.003907 8.4453 3.3672 16.547 9.3438 22.516 5.9727 5.9688 14.078 9.3242 22.523 9.3203h382.32c8.4414-0.003906 16.535-3.3633 22.504-9.332s9.3242-14.062 9.332-22.504c0-8.4492-3.3516-16.551-9.3203-22.527s-14.07-9.3359-22.516-9.3438zm0 127.44v0.003907c-8.4531-0.003907-16.559 3.3555-22.535 9.332-5.9766 5.9766-9.3359 14.082-9.332 22.535 0.007813 8.4492 3.3672 16.547 9.3438 22.516 5.9727 5.9727 14.078 9.3242 22.523 9.3203h382.32c8.4414-0.003906 16.535-3.3594 22.504-9.332 5.9688-5.9688 9.3242-14.062 9.332-22.504 0-8.4453-3.3516-16.551-9.3203-22.523-5.9688-5.9766-14.07-9.3398-22.516-9.3438zm0 127.44v0.003906c-8.4453 0-16.551 3.3516-22.523 9.3203-5.9766 5.9727-9.3398 14.07-9.3438 22.52-0.003906 8.4492 3.3555 16.559 9.332 22.535 5.9766 5.9766 14.082 9.332 22.535 9.332h382.32c8.4453-0.007813 16.547-3.3672 22.516-9.3438s9.3203-14.078 9.3203-22.523c-0.007813-8.4453-3.3633-16.539-9.332-22.508s-14.062-9.3242-22.504-9.332z"/>
</svg>
